<?xml version="1.0" encoding="UTF-8"?>
<svg id="_레이어_2" data-name="레이어 2" xmlns="http://www.w3.org/2000/svg" viewBox="0 0 54.55 72.14">
  <defs>
    <style>
      .cls-1 {
        fill: none;
        stroke: #000;
        stroke-miterlimit: 10;
        stroke-width: 2px;
      }
    </style>
  </defs>
  <g id="_레이어_1-2" data-name="레이어 1">
    <path d="M17.48,7.77c-3.22,0-5.83,2.61-5.83,5.83v29.97c0,2.1-.86,3.87-1.86,5.16-1.27,1.65-2.03,3.7-2.03,5.95,0,5.37,4.35,9.71,9.71,9.71s9.71-4.35,9.71-9.71c0-2.25-.75-4.3-2.03-5.94-1-1.29-1.86-3.06-1.86-5.16V13.6c0-3.22-2.61-5.83-5.83-5.83ZM3.88,13.6C3.88,6.09,9.97,0,17.48,0s13.6,6.08,13.6,13.6v29.96s.01.04.02.07c.02.07.1.19.21.34,2.29,2.96,3.65,6.68,3.65,10.7,0,9.65-7.83,17.48-17.48,17.48S0,64.33,0,54.67c0-4.03,1.36-7.75,3.65-10.7.11-.15.18-.27.21-.34.01-.04.02-.06.02-.07V13.6ZM23.31,54.67c0,3.22-2.61,5.83-5.83,5.83s-5.83-2.61-5.83-5.83c0-2.54,1.63-4.7,3.88-5.5v-29.69c0-1.07.87-1.94,1.94-1.94s1.94.87,1.94,1.94v29.69c2.26.8,3.88,2.96,3.88,5.5Z"/>
    <line class="cls-1" x1="40.55" y1="7.77" x2="54.55" y2="7.77"/>
    <line class="cls-1" x1="40.55" y1="16.03" x2="47.55" y2="16.03"/>
    <line class="cls-1" x1="40.55" y1="24.3" x2="54.55" y2="24.3"/>
    <line class="cls-1" x1="40.55" y1="32.56" x2="47.55" y2="32.56"/>
    <line class="cls-1" x1="40.55" y1="40.82" x2="54.55" y2="40.82"/>
  </g>
</svg>