<?xml version="1.0" encoding="UTF-8"?>
<svg id="_레이어_2" data-name="레이어 2" xmlns="http://www.w3.org/2000/svg" viewBox="0 0 20 21.73">
  <defs>
    <style>
      .cls-1 {
        fill: #fff;
      }

      .cls-2 {
        fill: #e0e5ec;
      }
    </style>
  </defs>
  <g id="_레이어_1-2" data-name="레이어 1">
    <g>
      <path class="cls-2" d="M14.26,15.95h-6.17c-.97,0-1.76-.79-1.76-1.76v-1.29h-.59l-4.74,3.72V2.76c0-.97.79-1.76,1.76-1.76h11.43c.97,0,1.76.79,1.76,1.76v2.81h1.29c.97,0,1.76.79,1.76,1.76v12.34l-4.74-3.72ZM12.43,9.38v-4.86h-7.9v4.86h7.9Z"/>
      <path class="cls-1" d="M14.19,2c.42,0,.76.34.76.76v9.14H5.39l-3.39,2.67V2.76c0-.42.34-.76.76-.76h11.43M3.52,11.44l1.34-1.06h8.56V3.52H3.52v7.91M17.24,6.57c.42,0,.76.34.76.76v10.29l-3.39-2.67h-6.51c-.42,0-.76-.34-.76-.76v-.76h7.8l1.34,1.06v-7.91h.76M14.19,0H2.76C1.24,0,0,1.24,0,2.76v15.92l3.24-2.54,2.11-1.66c.15,1.39,1.32,2.47,2.75,2.47h5.82l2.85,2.24,3.24,2.54V7.33c0-1.52-1.24-2.76-2.76-2.76h-.29v-1.81c0-1.52-1.24-2.76-2.76-2.76h0ZM5.52,5.52h5.9v2.86h-5.9v-2.86h0Z"/>
    </g>
    <g>
      <circle class="cls-2" cx="5.82" cy="7.19" r=".5"/>
      <circle class="cls-2" cx="8.48" cy="7.19" r=".5"/>
      <circle class="cls-2" cx="11.13" cy="7.19" r=".5"/>
    </g>
  </g>
</svg>