<?xml version="1.0" encoding="UTF-8"?>
<svg id="_레이어_2" data-name="레이어 2" xmlns="http://www.w3.org/2000/svg" viewBox="0 0 36 36">
  <defs>
    <style>
      .cls-1 {
        fill: #fff;
      }

      .cls-2 {
        fill: #e0e5ec;
      }
    </style>
  </defs>
  <g id="_레이어_1-2" data-name="레이어 1">
    <g>
      <circle class="cls-2" cx="18" cy="18" r="18"/>
      <g>
        <path class="cls-1" d="M9.65,18.73l3.7,3.78c.4.41.4,1.06,0,1.47h0c-.41.42-1.09.42-1.5,0l-5.13-5.25c-.4-.41-.4-1.06,0-1.47l5.13-5.25c.41-.42,1.09-.42,1.5,0h0c.4.41.4,1.06,0,1.47l-3.7,3.78c-.4.41-.4,1.06,0,1.47Z"/>
        <path class="cls-1" d="M26.35,17.27l-3.7-3.78c-.4-.41-.4-1.06,0-1.47h0c.41-.42,1.09-.42,1.5,0l5.13,5.25c.4.41.4,1.06,0,1.47l-5.13,5.25c-.41.42-1.09.42-1.5,0h0c-.4-.41-.4-1.06,0-1.47l3.7-3.78c.4-.41.4-1.06,0-1.47Z"/>
      </g>
    </g>
  </g>
</svg>