<?xml version="1.0" encoding="UTF-8"?><svg id="b" xmlns="http://www.w3.org/2000/svg" viewBox="0 0 16.650000000000546 16.942957665130052"><defs><style>.d{stroke:#7f8488;stroke-miterlimit:10;stroke-width:.65px;}.d,.e,.f{fill:#7f8488;}.e{font-family:Outfit-Bold, Outfit;font-size:3.542901039123535px;font-variation-settings:'wght' 700;font-weight:700;}</style></defs><g id="c"><path class="d" d="m15.423591076337289,16.167252531696249c.135210868427748,0,.225351895114727-.045069841740769.315492921801706-.135210868427748.09014102668516-.090141026686979.135210868427748-.180282053373958.135210868427748-.315492921801706v-4.845069774582043c0-.135210868428658-.045069841742588-.225351895114727-.135210868427748-.315492921801706-.090141026686979-.090141026686069-.180282053373958-.135210868427748-.315492921801706-.135210868427748h-6.918309358765327c-.518309896045139,0-.969014357877313-.270423080060027-1.19436625299204-.721126870290391l-.788732304504265-1.487323582321551c-.090141026686069-.157746460900853-.225351895114727-.247887487586922-.405633948487775-.247887487586922H1.226408252061447c-.135211204229563,0-.225352230915632.045070513343489-.315492921801706.135211540029559s-.135211204229563.180281381772147-.135211204229563.315492921801706v7.301407043179097c0,.247886815985112.202816974244342.450703790229454.450704126031269.450703790229454h14.197182824275842m0,.450703790229454H1.226408252061447c-.495774639373849,0-.901408252061628-.405633948486866-.901408252061628-.90140892366253v-7.301407043178187c0-.247887487587832.090140690886074-.450704461832174.270422408458217-.630985843603412s.383098691816485-.270422408458217.630985843603412-.270422408458217h4.890140959526434c.338027842672091,0,.630985843603412.180281381771238.788732304504265.473239382702559l.788732304503355,1.487323582320641c.157746460900853.315492921801706.450704461832174.47324005430437.788732976106076.47324005430437h6.940844279635712c.247886815985112,0,.450703790229454.090141026686979.630985843603412.270423080060027.180282053372139.180282053373048.270423080059118.383099027617391.270423080059118.630985843603412v4.867604695452428c0,.247886815985112-.090141026686979.450703790229454-.270423080059118.630985843603412-.180282053373958.180282053372139-.3830990276183.270423080059118-.630985843603412.270423080059118v-.000001343203621Z"/><path class="d" d="m2.736267091054287,7.694013484794596h-.450704126030359V3.186971552885552c0-.247887487586922.090140690885164-.450704126030359.270422408458217-.630985843603412.180281717572143-.180281717572143.38309835601558-.270422408458217.630985843603412-.270422408458217h8.788731297101549c.247886815985112,0,.450703790229454.090140690886074.630985843602502.270422408458217s.270423080060027.38309835601649.270423080060027.630985843603412v7.21126735969483h-.450703790229454V3.186971552885552c0-.135211540029559-.045069841741679-.225351895114727-.135210868428658-.315492921801706s-.180282053373048-.135211204228654-.315492921801706-.135211204228654H3.186971888686458c-.135211540029559,0-.225351895114727.045070513343489-.315492921801706.135211204228654-.090141026686069.090141026686979-.135211204228654.180281381772147-.135211204228654.315492921801706v4.507041931909043"/><path class="d" d="m3.975703521588912,2.53345045261085h-.450704461831265v-1.307042200549404c0-.247887151786927.090141026686979-.450704126031269.270422408458217-.630985843603412s.38309835601558-.270422408458217.630985843603412-.270422408458217h9.284506943878114c.495774975174754,0,.90140892366253.40563361268687.90140892366253.901408587862534v9.17183032471803h-.450703790229454V1.226408252061447c0-.247887151786927-.202816974244342-.450704126031269-.450703790230364-.450704126031269H4.426407983420177c-.135211540029559,0-.225351895114727.045070513343489-.315492921800796.135211204229563-.090141026686979.090140690885164-.135211540030468.180281717572143-.135211540030468.315492921801706v1.307042200549404"/><text class="e" transform="translate(4.306307983398256 14.454577101073482)"><tspan x="0" y="0">BOM</tspan></text><circle class="f" cx="2.296830593359118" cy="9.47429506804724" r=".297060507410265"/><circle class="f" cx="3.281215421853631" cy="9.47429506804724" r=".297060507410265"/><circle class="f" cx="4.265600250348143" cy="9.47429506804724" r=".297060507410265"/><circle class="f" cx="5.249985078842656" cy="9.47429506804724" r=".297060507410265"/></g></svg>